<svg width="120" height="40" viewBox="0 0 120 40" fill="none" xmlns="http://www.w3.org/2000/svg">
<path d="M110.444 0.00013H9.56145C9.19372 0.00013 8.8304 0.00013 8.46364 0.00213C8.15663 0.00413 7.85207 0.00994 7.54211 0.01483C6.86874 0.0227318 6.19695 0.0818063 5.53259 0.19154C4.86915 0.303663 4.2265 0.515046 3.62637 0.81854C3.02697 1.1246 2.47929 1.5223 2.00318 1.9972C1.52457 2.47077 1.12561 3.01815 0.82165 3.61829C0.516847 4.21724 0.305496 4.85907 0.194896 5.52161C0.083244 6.18332 0.0231632 6.85265 0.0151925 7.52361C0.00588648 7.83021 0.00490373 8.13783 0 8.44447V31.5587C0.00490373 31.8692 0.00588648 32.17 0.0151925 32.4806C0.0231657 33.1516 0.0832464 33.8209 0.194896 34.4825C0.30519 35.1455 0.516554 35.7877 0.82165 36.3868C1.12548 36.985 1.52449 37.5302 2.00318 38.0011C2.47748 38.4781 3.02552 38.8761 3.62637 39.1798C4.2265 39.4841 4.86908 39.6968 5.53259 39.8106C6.19707 39.9195 6.86879 39.9786 7.54211 39.9874C7.85207 39.9942 8.15663 39.9981 8.46364 39.9981C8.83039 40.0001 9.19374 40.0001 9.56145 40.0001H110.444C110.804 40.0001 111.171 40.0001 111.531 39.9981C111.837 39.9981 112.15 39.9942 112.455 39.9874C113.128 39.9791 113.798 39.92 114.461 39.8106C115.127 39.696 115.772 39.4834 116.375 39.1798C116.975 38.8759 117.522 38.478 117.996 38.0011C118.474 37.5284 118.874 36.9836 119.181 36.3868C119.484 35.7872 119.693 35.1451 119.802 34.4825C119.914 33.8208 119.976 33.1516 119.988 32.4806C119.992 32.17 119.992 31.8692 119.992 31.5587C120 31.1954 120 30.8341 120 30.4649V9.53626C120 9.17005 120 8.80677 119.992 8.44447C119.992 8.13783 119.992 7.83021 119.988 7.52357C119.976 6.85255 119.914 6.18337 119.802 5.52157C119.693 4.85941 119.484 4.21763 119.181 3.61825C118.562 2.41533 117.581 1.43616 116.375 0.81845C115.772 0.515697 115.127 0.30437 114.461 0.19145C113.798 0.0812328 113.128 0.0221378 112.455 0.01469C112.15 0.00981 111.837 0.00395 111.531 0.002C111.171 0 110.804 0 110.444 0V0.00013Z" fill="#A6A6A6"/>
<path d="M8.46856 39.125C8.16303 39.125 7.86487 39.1211 7.56174 39.1143C6.93376 39.1061 6.30725 39.0516 5.68735 38.9512C5.10932 38.8519 4.54937 38.6673 4.02596 38.4033C3.50735 38.1415 3.03433 37.7983 2.62504 37.3867C2.20981 36.98 1.86412 36.5082 1.60166 35.9902C1.33631 35.4688 1.15267 34.9099 1.05714 34.333C0.953972 33.7131 0.898156 33.0863 0.890169 32.458C0.883812 32.2471 0.875488 31.5449 0.875488 31.5449V8.44434C0.875488 8.44434 0.884353 7.75293 0.89022 7.5498C0.897867 6.92248 0.953358 6.29665 1.05621 5.67773C1.15192 5.09925 1.3357 4.53875 1.6012 4.01563C1.8627 3.49794 2.20647 3.02586 2.61919 2.61768C3.03145 2.20562 3.50597 1.8606 4.02547 1.59521C4.54767 1.33209 5.10657 1.14873 5.68343 1.05127C6.30537 0.949836 6.93405 0.894996 7.5642 0.88721L8.46906 0.875H111.526L112.442 0.8877C113.066 0.895099 113.689 0.94945 114.305 1.05029C114.888 1.14898 115.453 1.33362 115.981 1.59814C117.022 2.13299 117.869 2.97916 118.403 4.01807C118.664 4.53758 118.845 5.09351 118.939 5.66699C119.044 6.29099 119.102 6.92174 119.114 7.5542C119.117 7.8374 119.117 8.1416 119.117 8.44434C119.125 8.81934 119.125 9.17627 119.125 9.53613V30.4648C119.125 30.8281 119.125 31.1826 119.117 31.54C119.117 31.8652 119.117 32.1631 119.113 32.4697C119.101 33.0909 119.044 33.7104 118.941 34.3232C118.848 34.9043 118.665 35.4675 118.4 35.9932C118.136 36.5056 117.792 36.9733 117.381 37.3789C116.972 37.7927 116.498 38.1379 115.978 38.4014C115.451 38.6674 114.887 38.8527 114.305 38.9512C113.686 39.0522 113.059 39.1067 112.431 39.1143C112.137 39.1211 111.83 39.125 111.531 39.125L110.444 39.127L8.46856 39.125Z" fill="black"/>
<path d="M24.8384 20.3013C24.8492 19.4666 25.0715 18.6483 25.4847 17.9223C25.8978 17.1964 26.4885 16.5864 27.2015 16.1492C26.7485 15.5041 26.1509 14.9731 25.4561 14.5986C24.7614 14.224 23.9886 14.0162 23.1992 13.9916C21.5152 13.8153 19.8827 14.9964 19.0246 14.9964C18.1499 14.9964 16.8287 14.0091 15.406 14.0383C14.4857 14.0679 13.5889 14.3348 12.8028 14.8128C12.0167 15.2909 11.3682 15.9638 10.9205 16.7661C8.98105 20.1145 10.4277 25.0356 12.2855 27.7422C13.215 29.0676 14.3013 30.548 15.7228 30.4955C17.1137 30.438 17.6332 29.611 19.3122 29.611C20.9756 29.611 21.463 30.4955 22.9133 30.4621C24.4058 30.438 25.3462 29.1309 26.2431 27.793C26.911 26.8486 27.4249 25.8049 27.7658 24.7005C26.8987 24.3347 26.1587 23.7226 25.6381 22.9403C25.1175 22.158 24.8394 21.2402 24.8384 20.3013Z" fill="white"/>
<path d="M22.0989 12.2113C22.9127 11.2371 23.3137 9.98494 23.2166 8.7207C21.9733 8.85092 20.8248 9.44348 20 10.3803C19.5967 10.838 19.2879 11.3704 19.0911 11.9472C18.8943 12.524 18.8134 13.1337 18.8531 13.7417C19.475 13.7481 20.0902 13.6137 20.6524 13.3486C21.2147 13.0835 21.7092 12.6946 22.0989 12.2113Z" fill="white"/>
<path d="M42.421 27.1402H37.6743L36.5344 30.4966H34.5239L39.0199 18.0786H41.1088L45.6047 30.4966H43.56L42.421 27.1402ZM38.166 25.5913H41.9285L40.0737 20.1441H40.0218L38.166 25.5913Z" fill="white"/>
<path d="M55.3145 25.9704C55.3145 28.7839 53.8044 30.5915 51.5256 30.5915C50.9483 30.6216 50.3742 30.489 49.869 30.2089C49.3638 29.9288 48.9479 29.5124 48.6689 29.0075H48.6258V33.4919H46.7622V21.4431H48.5661V22.9489H48.6004C48.8922 22.4465 49.3151 22.0323 49.8241 21.7504C50.3332 21.4686 50.9093 21.3296 51.4913 21.3483C53.7956 21.3484 55.3145 23.1648 55.3145 25.9704ZM53.399 25.9704C53.399 24.1374 52.449 22.9323 50.9997 22.9323C49.5758 22.9323 48.618 24.1628 48.618 25.9704C48.618 27.7946 49.5758 29.0163 50.9997 29.0163C52.4491 29.0163 53.399 27.82 53.399 25.9704Z" fill="white"/>
<path d="M65.3072 25.9704C65.3072 28.7839 63.7971 30.5915 61.5182 30.5915C60.941 30.6216 60.3669 30.489 59.8617 30.2089C59.3565 29.9287 58.9406 29.5124 58.6616 29.0075H58.6185V33.4919H56.7549V21.4431H58.5588V22.9489H58.593C58.8848 22.4465 59.3077 22.0323 59.8168 21.7504C60.3258 21.4686 60.902 21.3296 61.4839 21.3483C63.7883 21.3483 65.3072 23.1647 65.3072 25.9704ZM63.3917 25.9704C63.3917 24.1374 62.4417 22.9323 60.9924 22.9323C59.5684 22.9323 58.6107 24.1628 58.6107 25.9704C58.6107 27.7946 59.5684 29.0163 60.9924 29.0163C62.4417 29.0163 63.3917 27.82 63.3917 25.9704H63.3917Z" fill="white"/>
<path d="M71.9116 27.0367C72.0497 28.2681 73.2494 29.0767 74.8887 29.0767C76.4595 29.0767 77.5896 28.2681 77.5896 27.1577C77.5896 26.1939 76.908 25.6167 75.2941 25.2212L73.6803 24.8335C71.3936 24.2827 70.332 23.2163 70.332 21.4858C70.332 19.3433 72.2044 17.8716 74.8632 17.8716C77.4946 17.8716 79.2985 19.3433 79.3592 21.4858H77.478C77.3653 20.2466 76.3381 19.4985 74.8368 19.4985C73.3355 19.4985 72.3082 20.2554 72.3082 21.3569C72.3082 22.2349 72.9644 22.7515 74.5694 23.1469L75.9414 23.4829C78.4964 24.0854 79.558 25.1089 79.558 26.9253C79.558 29.2485 77.7022 30.7036 74.7506 30.7036C71.989 30.7036 70.1244 29.2827 70.0039 27.0366L71.9116 27.0367Z" fill="white"/>
<path d="M83.5802 19.3003V21.4429H85.3067V22.9146H83.5802V27.9058C83.5802 28.6812 83.9259 29.0425 84.6849 29.0425C84.8898 29.0389 85.0945 29.0246 85.2979 28.9995V30.4624C84.9567 30.526 84.6099 30.5547 84.2628 30.5483C82.4246 30.5483 81.7078 29.8598 81.7078 28.104V22.9146H80.3877V21.4429H81.7078V19.3003H83.5802Z" fill="white"/>
<path d="M86.3066 25.9702C86.3066 23.1216 87.9891 21.3315 90.6126 21.3315C93.245 21.3315 94.9196 23.1215 94.9196 25.9702C94.9196 28.8267 93.2538 30.6089 90.6126 30.6089C87.9724 30.6089 86.3066 28.8267 86.3066 25.9702ZM93.0207 25.9702C93.0207 24.0161 92.1227 22.8628 90.6126 22.8628C89.1025 22.8628 88.2055 24.0249 88.2055 25.9702C88.2055 27.9321 89.1025 29.0767 90.6126 29.0767C92.1227 29.0767 93.0207 27.9321 93.0207 25.9702H93.0207Z" fill="white"/>
<path d="M96.4561 21.443H98.2335V22.984H98.2766C98.3969 22.5027 98.6796 22.0774 99.0773 21.7795C99.475 21.4816 99.9634 21.3293 100.46 21.3483C100.675 21.3475 100.889 21.3708 101.099 21.4176V23.1559C100.828 23.0733 100.545 23.0353 100.262 23.0436C99.9909 23.0326 99.721 23.0802 99.4704 23.1831C99.2199 23.286 98.9946 23.4417 98.8102 23.6396C98.6257 23.8375 98.4863 24.0729 98.4016 24.3295C98.317 24.5862 98.289 24.8581 98.3197 25.1266V30.4967H96.4561L96.4561 21.443Z" fill="white"/>
<path d="M109.691 27.8374C109.441 29.481 107.836 30.6089 105.782 30.6089C103.141 30.6089 101.501 28.8442 101.501 26.0132C101.501 23.1733 103.15 21.3315 105.704 21.3315C108.216 21.3315 109.795 23.0522 109.795 25.7974V26.4341H103.383V26.5464C103.353 26.8796 103.395 27.2153 103.505 27.5311C103.616 27.8469 103.793 28.1357 104.024 28.3783C104.255 28.6208 104.535 28.8116 104.845 28.9379C105.156 29.0642 105.49 29.1231 105.825 29.1108C106.265 29.152 106.707 29.0503 107.085 28.8208C107.463 28.5914 107.756 28.2465 107.922 27.8374L109.691 27.8374ZM103.392 25.1353H107.931C107.947 24.8357 107.902 24.5358 107.797 24.2546C107.692 23.9734 107.53 23.7169 107.321 23.5011C107.111 23.2854 106.86 23.115 106.582 23.0008C106.303 22.8866 106.004 22.831 105.704 22.8374C105.4 22.8356 105.099 22.8937 104.819 23.0085C104.538 23.1232 104.282 23.2923 104.067 23.5059C103.853 23.7196 103.682 23.9735 103.566 24.2532C103.45 24.5328 103.391 24.8326 103.392 25.1353V25.1353Z" fill="white"/>
<path d="M37.9323 8.73089C38.323 8.70293 38.7151 8.76179 39.0802 8.90323C39.4454 9.04466 39.7745 9.26514 40.0438 9.54876C40.3131 9.83239 40.516 10.1721 40.6377 10.5434C40.7595 10.9146 40.7971 11.3082 40.7478 11.6957C40.7478 13.602 39.7147 14.6977 37.9323 14.6977H35.771V8.73089H37.9323ZM36.7003 13.8539H37.8285C38.1077 13.8705 38.3871 13.8249 38.6464 13.7203C38.9056 13.6157 39.1382 13.4547 39.3273 13.2491C39.5163 13.0436 39.6569 12.7986 39.739 12.532C39.8211 12.2653 39.8426 11.9838 39.8018 11.7079C39.8396 11.4331 39.816 11.1533 39.7326 10.8886C39.6493 10.624 39.5083 10.381 39.3197 10.177C39.1311 9.9731 38.8996 9.81329 38.6418 9.70905C38.384 9.60481 38.1063 9.55873 37.8285 9.5741H36.7003V13.8539Z" fill="white"/>
<path d="M41.7972 12.4443C41.7688 12.1484 41.8027 11.8498 41.8968 11.5677C41.9909 11.2857 42.1431 11.0263 42.3436 10.8063C42.5441 10.5864 42.7885 10.4106 43.0612 10.2903C43.3338 10.17 43.6286 10.1079 43.9267 10.1079C44.2248 10.1079 44.5196 10.17 44.7922 10.2903C45.0648 10.4106 45.3092 10.5864 45.5097 10.8063C45.7102 11.0263 45.8624 11.2857 45.9565 11.5677C46.0506 11.8498 46.0846 12.1484 46.0562 12.4443C46.0851 12.7405 46.0516 13.0395 45.9577 13.322C45.8639 13.6045 45.7118 13.8644 45.5112 14.0848C45.3106 14.3052 45.0661 14.4813 44.7932 14.6019C44.5203 14.7224 44.2251 14.7847 43.9267 14.7847C43.6282 14.7847 43.3331 14.7224 43.0602 14.6019C42.7873 14.4813 42.5427 14.3052 42.3422 14.0848C42.1416 13.8644 41.9895 13.6045 41.8957 13.322C41.8018 13.0395 41.7683 12.7405 41.7972 12.4443ZM45.1395 12.4443C45.1395 11.4682 44.6998 10.8974 43.9281 10.8974C43.1535 10.8974 42.7178 11.4682 42.7178 12.4443C42.7178 13.4282 43.1535 13.9946 43.9281 13.9946C44.6998 13.9946 45.1396 13.4243 45.1396 12.4443H45.1395Z" fill="white"/>
<path d="M51.7177 14.6978H50.7932L49.8599 11.3813H49.7894L48.8601 14.6978H47.9444L46.6997 10.1948H47.6036L48.4125 13.6308H48.4791L49.4075 10.1948H50.2624L51.1908 13.6308H51.2613L52.0663 10.1948H52.9575L51.7177 14.6978Z" fill="white"/>
<path d="M54.0044 10.1949H54.8623V10.9102H54.9289C55.0418 10.6533 55.2324 10.4379 55.4739 10.2941C55.7155 10.1503 55.996 10.0852 56.2764 10.1079C56.4961 10.0915 56.7167 10.1245 56.9219 10.2046C57.1271 10.2847 57.3115 10.4098 57.4616 10.5707C57.6117 10.7315 57.7236 10.924 57.789 11.1338C57.8544 11.3436 57.8716 11.5654 57.8393 11.7827V14.6977H56.9482V12.0059C56.9482 11.2823 56.6329 10.9224 55.9738 10.9224C55.8246 10.9155 55.6757 10.9408 55.5372 10.9966C55.3988 11.0525 55.2741 11.1375 55.1717 11.2459C55.0693 11.3543 54.9916 11.4834 54.9439 11.6246C54.8963 11.7657 54.8798 11.9154 54.8956 12.0635V14.6978H54.0044L54.0044 10.1949Z" fill="white"/>
<path d="M59.2593 8.43701H60.1504V14.6978H59.2593V8.43701Z" fill="white"/>
<path d="M61.3894 12.4444C61.3611 12.1484 61.395 11.8499 61.4892 11.5678C61.5833 11.2857 61.7355 11.0263 61.936 10.8064C62.1366 10.5864 62.381 10.4106 62.6536 10.2903C62.9262 10.17 63.2211 10.1079 63.5192 10.1079C63.8173 10.1079 64.1121 10.17 64.3848 10.2903C64.6574 10.4106 64.9018 10.5864 65.1023 10.8064C65.3029 11.0263 65.4551 11.2857 65.5492 11.5678C65.6433 11.8499 65.6773 12.1484 65.6489 12.4444C65.6778 12.7406 65.6442 13.0396 65.5504 13.3221C65.4565 13.6046 65.3044 13.8645 65.1038 14.0849C64.9032 14.3053 64.6586 14.4814 64.3857 14.6019C64.1128 14.7225 63.8177 14.7847 63.5192 14.7847C63.2207 14.7847 62.9256 14.7225 62.6527 14.6019C62.3798 14.4814 62.1352 14.3053 61.9346 14.0849C61.734 13.8645 61.5819 13.6046 61.488 13.3221C61.3941 13.0396 61.3606 12.7406 61.3894 12.4444ZM64.7318 12.4444C64.7318 11.4683 64.2921 10.8975 63.5204 10.8975C62.7458 10.8975 62.31 11.4683 62.31 12.4444C62.31 13.4283 62.7458 13.9947 63.5204 13.9947C64.2921 13.9947 64.7318 13.4244 64.7318 12.4444H64.7318Z" fill="white"/>
<path d="M66.5864 13.4243C66.5864 12.6138 67.1916 12.1465 68.2659 12.0801L69.4891 12.0098V11.6211C69.4891 11.1455 69.1737 10.877 68.5646 10.877C68.0671 10.877 67.7224 11.0591 67.6235 11.3774H66.7607C66.8518 10.604 67.5814 10.1079 68.6058 10.1079C69.7378 10.1079 70.3763 10.6699 70.3763 11.6211V14.6978H69.5185V14.0649H69.448C69.3048 14.2919 69.1039 14.477 68.8656 14.6012C68.6273 14.7254 68.3602 14.7843 68.0916 14.7719C67.9021 14.7916 67.7105 14.7714 67.5292 14.7127C67.3479 14.654 67.181 14.5581 67.0392 14.4311C66.8974 14.3042 66.7838 14.149 66.7058 13.9756C66.6278 13.8021 66.5872 13.6144 66.5864 13.4243ZM69.4891 13.0395V12.6631L68.3864 12.7334C67.7645 12.7749 67.4825 12.9858 67.4825 13.3828C67.4825 13.7881 67.835 14.0239 68.3198 14.0239C68.4619 14.0382 68.6053 14.0239 68.7417 13.9819C68.8781 13.9398 69.0046 13.8707 69.1137 13.7789C69.2228 13.6871 69.3123 13.5743 69.3767 13.4473C69.4412 13.3202 69.4794 13.1816 69.4891 13.0395Z" fill="white"/>
<path d="M71.5474 12.4444C71.5474 11.0215 72.2809 10.1201 73.4218 10.1201C73.704 10.1072 73.984 10.1746 74.2292 10.3145C74.4745 10.4544 74.6747 10.661 74.8065 10.9101H74.8731V8.43701H75.7642V14.6978H74.9103V13.9863H74.8398C74.6978 14.2338 74.4906 14.4378 74.2406 14.5763C73.9907 14.7148 73.7075 14.7825 73.4218 14.772C72.273 14.772 71.5474 13.8706 71.5474 12.4444ZM72.4679 12.4444C72.4679 13.3994 72.9194 13.9741 73.6744 13.9741C74.4256 13.9741 74.8898 13.3911 74.8898 12.4483C74.8898 11.5098 74.4207 10.9185 73.6744 10.9185C72.9243 10.9185 72.4679 11.4971 72.4679 12.4444H72.4679Z" fill="white"/>
<path d="M79.4515 12.4443C79.4231 12.1484 79.457 11.8498 79.5511 11.5677C79.6452 11.2857 79.7974 11.0263 79.9979 10.8063C80.1984 10.5864 80.4428 10.4106 80.7154 10.2903C80.9881 10.17 81.2829 10.1079 81.581 10.1079C81.8791 10.1079 82.1739 10.17 82.4465 10.2903C82.7191 10.4106 82.9635 10.5864 83.164 10.8063C83.3645 11.0263 83.5167 11.2857 83.6108 11.5677C83.7049 11.8498 83.7389 12.1484 83.7105 12.4443C83.7394 12.7405 83.7059 13.0395 83.612 13.322C83.5181 13.6045 83.3661 13.8644 83.1655 14.0848C82.9649 14.3052 82.7204 14.4813 82.4475 14.6019C82.1746 14.7224 81.8794 14.7847 81.581 14.7847C81.2825 14.7847 80.9874 14.7224 80.7145 14.6019C80.4416 14.4813 80.197 14.3052 79.9964 14.0848C79.7959 13.8644 79.6438 13.6045 79.5499 13.322C79.4561 13.0395 79.4226 12.7405 79.4515 12.4443ZM82.7938 12.4443C82.7938 11.4682 82.3541 10.8974 81.5824 10.8974C80.8078 10.8974 80.3721 11.4682 80.3721 12.4443C80.3721 13.4282 80.8078 13.9946 81.5824 13.9946C82.3541 13.9946 82.7938 13.4243 82.7938 12.4443Z" fill="white"/>
<path d="M84.9062 10.1949H85.7641V10.9102H85.8307C85.9437 10.6533 86.1342 10.4379 86.3758 10.2941C86.6173 10.1503 86.8978 10.0852 87.1782 10.1079C87.398 10.0915 87.6186 10.1245 87.8237 10.2046C88.0289 10.2847 88.2134 10.4098 88.3635 10.5707C88.5136 10.7315 88.6255 10.924 88.6909 11.1338C88.7563 11.3436 88.7735 11.5654 88.7412 11.7827V14.6977H87.85V12.0059C87.85 11.2823 87.5347 10.9224 86.8756 10.9224C86.7265 10.9155 86.5775 10.9408 86.4391 10.9966C86.3007 11.0525 86.176 11.1375 86.0735 11.2459C85.9711 11.3543 85.8934 11.4834 85.8458 11.6246C85.7981 11.7657 85.7816 11.9154 85.7974 12.0635V14.6978H84.9062V10.1949Z" fill="white"/>
<path d="M93.7765 9.07373V10.2153H94.7548V10.9639H93.7765V13.2793C93.7765 13.751 93.9714 13.9575 94.415 13.9575C94.5286 13.9572 94.642 13.9503 94.7548 13.937V14.6772C94.5948 14.7058 94.4326 14.721 94.27 14.7226C93.279 14.7226 92.8843 14.375 92.8843 13.5068V10.9638H92.1675V10.2153H92.8843V9.07373H93.7765Z" fill="white"/>
<path d="M95.9731 8.43701H96.8565V10.9185H96.927C97.0454 10.6591 97.2412 10.4425 97.4876 10.2982C97.734 10.1539 98.019 10.0888 98.3038 10.1118C98.5224 10.1 98.7409 10.1364 98.9438 10.2184C99.1466 10.3004 99.3288 10.4261 99.4773 10.5864C99.6259 10.7468 99.7371 10.9378 99.8031 11.146C99.869 11.3541 99.8881 11.5742 99.859 11.7905V14.6978H98.9669V12.0098C98.9669 11.2905 98.631 10.9263 98.0013 10.9263C97.8482 10.9137 97.6941 10.9347 97.5499 10.9878C97.4057 11.0408 97.2749 11.1247 97.1666 11.2334C97.0583 11.3421 96.9752 11.4732 96.9229 11.6173C96.8707 11.7614 96.8507 11.9152 96.8643 12.0679V14.6977H95.9732L95.9731 8.43701Z" fill="white"/>
<path d="M105.055 13.482C104.934 13.8935 104.672 14.2495 104.314 14.4877C103.956 14.7258 103.526 14.831 103.098 14.7847C102.801 14.7926 102.505 14.7357 102.232 14.6182C101.959 14.5007 101.714 14.3253 101.516 14.1041C101.317 13.883 101.17 13.6214 101.083 13.3376C100.996 13.0538 100.972 12.7545 101.012 12.4605C100.973 12.1656 100.997 11.8657 101.084 11.581C101.171 11.2964 101.318 11.0336 101.515 10.8105C101.713 10.5874 101.956 10.4093 102.228 10.2881C102.501 10.1669 102.796 10.1054 103.094 10.108C104.351 10.108 105.109 10.964 105.109 12.378V12.6881H101.92V12.7379C101.906 12.9031 101.927 13.0695 101.981 13.2262C102.036 13.383 102.122 13.5267 102.235 13.6481C102.349 13.7696 102.486 13.8661 102.639 13.9315C102.792 13.9969 102.957 14.0297 103.123 14.0279C103.336 14.0534 103.552 14.0151 103.743 13.9179C103.935 13.8207 104.093 13.669 104.197 13.482L105.055 13.482ZM101.92 12.0308H104.201C104.212 11.8797 104.192 11.7279 104.141 11.5852C104.089 11.4425 104.009 11.312 103.904 11.2021C103.8 11.0923 103.673 11.0055 103.533 10.9473C103.392 10.8891 103.241 10.8609 103.089 10.8643C102.935 10.8624 102.782 10.8913 102.64 10.9492C102.497 11.0072 102.367 11.093 102.258 11.2017C102.149 11.3104 102.063 11.4398 102.005 11.5822C101.947 11.7246 101.918 11.8771 101.92 12.0308H101.92Z" fill="white"/>
</svg>
