<svg width="136" height="41" viewBox="0 0 136 41" fill="none" xmlns="http://www.w3.org/2000/svg">
<g clip-path="url(#clip0)">
<path fill-rule="evenodd" clip-rule="evenodd" d="M130.961 40.131H5.03889C2.26175 40.131 0 37.8692 0 35.1146V5.01637C0 2.25174 2.26175 0 5.03889 0H130.961C133.736 0 136 2.25174 136 5.01637V35.1146C136 37.8692 133.736 40.131 130.961 40.131Z" fill="black"/>
<path fill-rule="evenodd" clip-rule="evenodd" d="M130.961 0.80312C133.29 0.80312 135.197 2.69708 135.197 5.01637V35.1146C135.197 37.4339 133.303 39.3279 130.961 39.3279H5.03889C2.70959 39.3279 0.80312 37.4339 0.80312 35.1146V5.01637C0.80312 2.69708 2.69708 0.80312 5.03889 0.80312H130.961ZM130.961 0H5.03889C2.26175 0 0 2.26175 0 5.01637V35.1146C0 37.8792 2.26175 40.131 5.03889 40.131H130.961C133.736 40.131 136 37.8792 136 35.1146V5.01637C136 2.26175 133.736 0 130.961 0Z" fill="#A6A6A6"/>
<path d="M71.6455 13.2751C70.7373 13.2751 69.9717 12.9574 69.3662 12.3319C68.7658 11.7239 68.4305 10.8858 68.4455 10.0301C68.4455 9.1169 68.7558 8.3438 69.3662 7.73083C69.9692 7.10534 70.7348 6.7876 71.643 6.7876C72.5412 6.7876 73.3068 7.10534 73.9223 7.73083C74.5327 8.36382 74.843 9.13691 74.843 10.0301C74.833 10.9458 74.5227 11.7189 73.9223 12.3294C73.3193 12.9599 72.5537 13.2751 71.6455 13.2751ZM44.6221 13.2751C43.734 13.2751 42.9634 12.9624 42.3329 12.3444C41.7074 11.7289 41.3896 10.9508 41.3896 10.0326C41.3896 9.11439 41.7074 8.33629 42.3329 7.72082C42.9509 7.10284 43.7214 6.7901 44.6221 6.7901C45.0625 6.7901 45.4903 6.87767 45.9006 7.0553C46.3034 7.22794 46.6312 7.46312 46.8739 7.75084L46.9339 7.8234L46.2559 8.48891L46.1859 8.40635C45.8031 7.951 45.2902 7.72832 44.6121 7.72832C44.0067 7.72832 43.4788 7.94349 43.0434 8.36882C42.6056 8.79665 42.3829 9.35708 42.3829 10.0351C42.3829 10.7131 42.6056 11.2736 43.0434 11.7014C43.4788 12.1267 44.0067 12.3419 44.6121 12.3419C45.2576 12.3419 45.8006 12.1267 46.2234 11.7014C46.4736 11.4512 46.6287 11.1009 46.6837 10.6581H44.5096V9.72236H47.617L47.6295 9.80743C47.652 9.96505 47.6745 10.1277 47.6745 10.2778C47.6745 11.141 47.4143 11.839 46.8989 12.3544C46.3134 12.9649 45.5479 13.2751 44.6221 13.2751ZM80.5524 13.1425H79.5941L76.6594 8.44638L76.6844 9.29203V13.14H75.7262V6.9227H76.8195L76.8495 6.97024L79.6092 11.3937L79.5841 10.5505V6.9227H80.5524V13.1425ZM64.445 13.1425H63.4742V7.85843H61.7904V6.9227H66.1262V7.85843H64.4424V13.1425H64.445ZM60.9998 13.1425H60.0315V6.9227H60.9998V13.1425ZM55.5581 13.1425H54.5898V7.85843H52.906V6.9227H57.2419V7.85843H55.5581V13.1425ZM52.2931 13.1325H48.5802V6.9227H52.2931V7.85843H49.5509V9.56474H52.0254V10.4905H49.5509V12.1968H52.2931V13.1325ZM70.0768 11.6889C70.5096 12.1217 71.035 12.3394 71.6455 12.3394C72.2735 12.3394 72.7864 12.1267 73.2142 11.6889C73.6395 11.2636 73.8547 10.7056 73.8547 10.0326C73.8547 9.35958 73.6395 8.79915 73.2167 8.37632C72.7839 7.94349 72.256 7.72582 71.648 7.72582C71.02 7.72582 70.5071 7.93849 70.0818 8.37632C69.6565 8.80165 69.4413 9.35958 69.4413 10.0326C69.4413 10.7056 69.654 11.2661 70.0768 11.6889Z" fill="white"/>
<path fill-rule="evenodd" clip-rule="evenodd" d="M68.3553 21.827C65.9909 21.827 64.0744 23.6209 64.0744 26.0953C64.0744 28.5472 66.0034 30.3636 68.3553 30.3636C70.7196 30.3636 72.6361 28.5572 72.6361 26.0953C72.6361 23.6209 70.7196 21.827 68.3553 21.827ZM68.3553 28.6723C67.0618 28.6723 65.9484 27.6015 65.9484 26.0853C65.9484 24.5466 67.0643 23.4983 68.3553 23.4983C69.6488 23.4983 70.7621 24.5466 70.7621 26.0853C70.7646 27.6115 69.6488 28.6723 68.3553 28.6723ZM59.0155 21.827C56.6512 21.827 54.7347 23.6209 54.7347 26.0953C54.7347 28.5472 56.6637 30.3636 59.0155 30.3636C61.3799 30.3636 63.2963 28.5572 63.2963 26.0953C63.2963 23.6209 61.3774 21.827 59.0155 21.827ZM59.0155 28.6723C57.722 28.6723 56.6087 27.6015 56.6087 26.0853C56.6087 24.5466 57.7245 23.4983 59.0155 23.4983C60.309 23.4983 61.4224 24.5466 61.4224 26.0853C61.4224 27.6115 60.309 28.6723 59.0155 28.6723ZM47.9019 23.1305V24.9369H52.2378C52.1052 25.9502 51.7699 26.6983 51.257 27.2112C50.6215 27.8467 49.6408 28.5372 47.9119 28.5372C45.2474 28.5372 43.1632 26.3856 43.1632 23.721C43.1632 21.0564 45.2474 18.9048 47.9119 18.9048C49.3505 18.9048 50.3988 19.4727 51.177 20.1983L52.4579 18.9173C51.3771 17.8815 49.9385 17.0884 47.9219 17.0884C44.2666 17.0884 41.1992 20.0657 41.1992 23.711C41.1992 27.3663 44.2641 30.3336 47.9219 30.3336C49.896 30.3336 51.3771 29.6881 52.548 28.4722C53.7414 27.2787 54.1192 25.5949 54.1192 24.2364C54.1192 23.8136 54.0867 23.4333 54.0192 23.1105H47.8994C47.9019 23.108 47.9019 23.1305 47.9019 23.1305ZM93.3596 24.5366C93.0019 23.5784 91.921 21.817 89.7043 21.817C87.5076 21.817 85.6812 23.5459 85.6812 26.0853C85.6812 28.4822 87.4876 30.3536 89.917 30.3536C91.8685 30.3536 93.0044 29.1602 93.4722 28.4597L92.0236 27.4889C91.5432 28.202 90.8752 28.6698 89.927 28.6698C88.9687 28.6698 88.2982 28.2345 87.8529 27.3763L93.5598 25.012C93.5598 25.0145 93.3596 24.5366 93.3596 24.5366ZM87.5401 25.9627C87.4951 24.314 88.8211 23.4758 89.7694 23.4758C90.5174 23.4758 91.1404 23.8436 91.3531 24.379L87.5401 25.9627ZM82.904 30.0984H84.778V17.5587H82.904V30.0984ZM79.8267 22.7753H79.7591C79.3363 22.2724 78.5331 21.817 77.5074 21.817C75.3782 21.817 73.4167 23.691 73.4167 26.0978C73.4167 28.4947 75.3682 30.3461 77.5074 30.3461C78.5206 30.3461 79.3363 29.8883 79.7591 29.3754H79.8267V29.9883C79.8267 31.6171 78.956 32.4953 77.5524 32.4953C76.404 32.4953 75.6909 31.6696 75.4007 30.9791L73.772 31.6596C74.2398 32.7855 75.4883 34.1791 77.5499 34.1791C79.7466 34.1791 81.608 32.8856 81.608 29.7306V22.0722H79.8367V22.7753C79.8392 22.7753 79.8267 22.7753 79.8267 22.7753ZM77.675 28.6723C76.3815 28.6723 75.3006 27.5915 75.3006 26.0978C75.3006 24.5917 76.3815 23.5008 77.675 23.5008C78.956 23.5008 79.9492 24.6042 79.9492 26.0978C79.9618 27.5915 78.9585 28.6723 77.675 28.6723ZM102.134 17.5587H97.653V30.0984H99.5269V25.3498H102.136C104.211 25.3498 106.25 23.8461 106.25 21.4593C106.25 19.0724 104.218 17.5587 102.134 17.5587ZM102.189 23.5984H99.5244V19.2951H102.189C103.593 19.2951 104.386 20.4535 104.386 21.4467C104.386 22.43 103.583 23.5984 102.189 23.5984ZM113.76 21.8045C112.399 21.8045 110.996 22.4075 110.415 23.721L112.077 24.4115C112.434 23.721 113.09 23.4858 113.783 23.4858C114.754 23.4858 115.734 24.0663 115.757 25.1021V25.2347C115.422 25.0445 114.686 24.7543 113.805 24.7543C112.012 24.7543 110.193 25.7351 110.193 27.574C110.193 29.2578 111.664 30.3386 113.303 30.3386C114.561 30.3386 115.254 29.7707 115.687 29.1127H115.755V30.0834H117.561V25.2797C117.561 23.043 115.9 21.8045 113.76 21.8045ZM113.525 28.6723C112.912 28.6723 112.054 28.3721 112.054 27.6015C112.054 26.6307 113.125 26.263 114.038 26.263C114.864 26.263 115.254 26.4406 115.744 26.6858C115.609 27.8117 114.659 28.6623 113.525 28.6723ZM124.151 22.0722L121.999 27.5114H121.932L119.703 22.0722H117.686L121.031 29.6756L119.125 33.9014H121.076L126.223 22.0722H124.151ZM107.283 30.0984H109.157V17.5587H107.283V30.0984Z" fill="white"/>
<path fill-rule="evenodd" clip-rule="evenodd" d="M10.4686 7.55828C10.1784 7.87102 10.0107 8.34889 10.0107 8.97437V31.159C10.0107 31.7845 10.1784 32.2623 10.4786 32.5626L10.5562 32.6301L22.9858 20.2005V19.9228L10.5462 7.49072L10.4686 7.55828Z" fill="url(#paint0_linear)"/>
<path fill-rule="evenodd" clip-rule="evenodd" d="M27.1213 24.3565L22.9756 20.2108V19.9206L27.1213 15.7749L27.2114 15.8299L32.1152 18.6171C33.5188 19.4077 33.5188 20.7137 32.1152 21.5143L27.2114 24.3015L27.1213 24.3565Z" fill="url(#paint1_linear)"/>
<path fill-rule="evenodd" clip-rule="evenodd" d="M27.2107 24.3012L22.9749 20.0654L10.4678 32.5726C10.9256 33.063 11.6937 33.118 12.5519 32.6401L27.2107 24.3012Z" fill="url(#paint2_linear)"/>
<path fill-rule="evenodd" clip-rule="evenodd" d="M27.2107 15.8297L12.5519 7.50323C11.6937 7.01285 10.9231 7.0804 10.4678 7.57078L22.9749 20.0654L27.2107 15.8297Z" fill="url(#paint3_linear)"/>
<path opacity="0.2" fill-rule="evenodd" clip-rule="evenodd" d="M27.121 24.2109L12.5621 32.4824C11.749 32.9502 11.0235 32.9177 10.5556 32.4924L10.478 32.5699L10.5556 32.6375C11.0235 33.0603 11.749 33.0953 12.5621 32.6275L27.221 24.301L27.121 24.2109Z" fill="black"/>
<path opacity="0.12" fill-rule="evenodd" clip-rule="evenodd" d="M32.1148 21.3689L27.1084 24.2111L27.1985 24.3012L32.1023 21.514C32.8053 21.1137 33.1506 20.5883 33.1506 20.0654C33.108 20.5458 32.7503 21.0012 32.1148 21.3689Z" fill="black"/>
<path opacity="0.25" fill-rule="evenodd" clip-rule="evenodd" d="M12.5527 7.64832L32.1153 18.7619C32.7508 19.1197 33.1086 19.5875 33.1636 20.0654C33.1636 19.5425 32.8184 19.0171 32.1153 18.6168L12.5527 7.5032C11.1491 6.70008 10.0107 7.3706 10.0107 8.97434V9.11945C10.0107 7.51321 11.1491 6.8552 12.5527 7.64832Z" fill="white"/>
</g>
<defs>
<linearGradient id="paint0_linear" x1="21.8708" y1="8.73502" x2="1.96078" y2="14.0401" gradientUnits="userSpaceOnUse">
<stop stop-color="#00A0FF"/>
<stop offset="0.00657" stop-color="#00A1FF"/>
<stop offset="0.2601" stop-color="#00BEFF"/>
<stop offset="0.5122" stop-color="#00D2FF"/>
<stop offset="0.7604" stop-color="#00DFFF"/>
<stop offset="1" stop-color="#00E3FF"/>
</linearGradient>
<linearGradient id="paint1_linear" x1="33.9456" y1="20.0658" x2="9.66936" y2="20.0658" gradientUnits="userSpaceOnUse">
<stop stop-color="#FFE000"/>
<stop offset="0.4087" stop-color="#FFBD00"/>
<stop offset="0.7754" stop-color="#FFA500"/>
<stop offset="1" stop-color="#FF9C00"/>
</linearGradient>
<linearGradient id="paint2_linear" x1="24.9074" y1="22.3703" x2="8.92371" y2="49.2722" gradientUnits="userSpaceOnUse">
<stop stop-color="#FF3A44"/>
<stop offset="1" stop-color="#C31162"/>
</linearGradient>
<linearGradient id="paint3_linear" x1="7.31834" y1="0.179311" x2="14.4493" y2="12.1941" gradientUnits="userSpaceOnUse">
<stop stop-color="#32A071"/>
<stop offset="0.0685" stop-color="#2DA771"/>
<stop offset="0.4762" stop-color="#15CF74"/>
<stop offset="0.8009" stop-color="#06E775"/>
<stop offset="1" stop-color="#00F076"/>
</linearGradient>
<clipPath id="clip0">
<rect width="136" height="40.131" fill="white"/>
</clipPath>
</defs>
</svg>
